<mxfile host="app.diagrams.net" modified="2022-12-26T08:22:59.150Z" agent="5.0 (Macintosh; Intel Mac OS X 10_15_7) AppleWebKit/537.36 (KHTML, like Gecko) Chrome/108.0.0.0 Safari/537.36" etag="OB66DHVwrOq3XQVXXCDw" version="20.3.1" type="github">
  <diagram id="2GZTVyMkHEXpmjrAUpdy" name="Page-1">
    <mxGraphModel dx="1227" dy="809" grid="1" gridSize="10" guides="1" tooltips="1" connect="1" arrows="1" fold="1" page="1" pageScale="1" pageWidth="850" pageHeight="1100" math="0" shadow="0">
      <root>
        <mxCell id="0" />
        <mxCell id="1" parent="0" />
        <mxCell id="dEeSa1bdFOgo_0fKDdkh-2" value="Price Service" style="rounded=0;whiteSpace=wrap;html=1;" vertex="1" parent="1">
          <mxGeometry x="160" y="160" width="120" height="60" as="geometry" />
        </mxCell>
        <mxCell id="dEeSa1bdFOgo_0fKDdkh-9" style="edgeStyle=orthogonalEdgeStyle;rounded=0;orthogonalLoop=1;jettySize=auto;html=1;exitX=0.5;exitY=1;exitDx=0;exitDy=0;" edge="1" parent="1" source="dEeSa1bdFOgo_0fKDdkh-3" target="dEeSa1bdFOgo_0fKDdkh-8">
          <mxGeometry relative="1" as="geometry" />
        </mxCell>
        <mxCell id="dEeSa1bdFOgo_0fKDdkh-15" style="edgeStyle=orthogonalEdgeStyle;rounded=0;orthogonalLoop=1;jettySize=auto;html=1;exitX=1;exitY=0.5;exitDx=0;exitDy=0;entryX=0;entryY=0.5;entryDx=0;entryDy=0;" edge="1" parent="1" source="dEeSa1bdFOgo_0fKDdkh-3" target="dEeSa1bdFOgo_0fKDdkh-12">
          <mxGeometry relative="1" as="geometry" />
        </mxCell>
        <mxCell id="dEeSa1bdFOgo_0fKDdkh-16" style="edgeStyle=orthogonalEdgeStyle;rounded=0;orthogonalLoop=1;jettySize=auto;html=1;exitX=1;exitY=0.75;exitDx=0;exitDy=0;entryX=-0.025;entryY=0.625;entryDx=0;entryDy=0;entryPerimeter=0;" edge="1" parent="1" source="dEeSa1bdFOgo_0fKDdkh-3" target="dEeSa1bdFOgo_0fKDdkh-14">
          <mxGeometry relative="1" as="geometry" />
        </mxCell>
        <mxCell id="dEeSa1bdFOgo_0fKDdkh-3" value="Pool Service" style="rounded=0;whiteSpace=wrap;html=1;" vertex="1" parent="1">
          <mxGeometry x="530" y="160" width="120" height="60" as="geometry" />
        </mxCell>
        <mxCell id="dEeSa1bdFOgo_0fKDdkh-4" value="Route API Service" style="rounded=0;whiteSpace=wrap;html=1;" vertex="1" parent="1">
          <mxGeometry x="305" y="40" width="120" height="60" as="geometry" />
        </mxCell>
        <mxCell id="dEeSa1bdFOgo_0fKDdkh-5" value="Scanner" style="rounded=0;whiteSpace=wrap;html=1;" vertex="1" parent="1">
          <mxGeometry x="480" y="40" width="120" height="60" as="geometry" />
        </mxCell>
        <mxCell id="dEeSa1bdFOgo_0fKDdkh-8" value="Event listener" style="rounded=0;whiteSpace=wrap;html=1;" vertex="1" parent="1">
          <mxGeometry x="530" y="410" width="120" height="60" as="geometry" />
        </mxCell>
        <mxCell id="dEeSa1bdFOgo_0fKDdkh-11" value="KN Protocol" style="rounded=0;whiteSpace=wrap;html=1;" vertex="1" parent="1">
          <mxGeometry x="160" y="350" width="120" height="60" as="geometry" />
        </mxCell>
        <mxCell id="dEeSa1bdFOgo_0fKDdkh-12" value="RPC" style="rounded=0;whiteSpace=wrap;html=1;" vertex="1" parent="1">
          <mxGeometry x="760" y="100" width="120" height="60" as="geometry" />
        </mxCell>
        <mxCell id="dEeSa1bdFOgo_0fKDdkh-14" value="Subgraph" style="rounded=0;whiteSpace=wrap;html=1;" vertex="1" parent="1">
          <mxGeometry x="760" y="220" width="120" height="60" as="geometry" />
        </mxCell>
      </root>
    </mxGraphModel>
  </diagram>
</mxfile>
